<?xml version="1.0" encoding="UTF-8" standalone="no"?>
<!DOCTYPE svg PUBLIC "-//W3C//DTD SVG 1.1//EN" "http://www.w3.org/Graphics/SVG/1.1/DTD/svg11.dtd">
<svg width="100%" height="100%" viewBox="0 0 1080 1080" version="1.1" xmlns="http://www.w3.org/2000/svg" xmlns:xlink="http://www.w3.org/1999/xlink" xml:space="preserve" xmlns:serif="http://www.serif.com/" style="fill-rule:evenodd;clip-rule:evenodd;stroke-linecap:round;stroke-linejoin:round;stroke-miterlimit:1.5;">
    <g id="Da-Michele-Logo" serif:id="Da Michele Logo" transform="matrix(1,0,0,1,53.4516,7.65674)">
        <path d="M44.046,376.275L59.606,361.757L77.756,348.949L99.764,344.271L118.117,345.379L136.329,351.287L150.39,360.978L156.191,376.314L158.438,392.583L157.97,411.969L158.819,434.532L160.764,450.54L160.218,469.974L165.19,488.625L170.782,507.789L175.115,524.937L188.829,534.227L199.113,519.478L208.718,497.998L217.598,479.272L226.618,458.011L237.819,436.617L247.242,417.115L259.108,395.231L274.406,379.291L289.712,371.177L303.883,374.529L319.386,384.905L333.758,402.312L341.76,420.456L346.175,438.491L358.138,453.993L372.454,470.333L383.338,486.023L395.969,504.834L407.298,520.489L420.401,538.565L432.146,549.537L445.353,554.416L463.482,549.676L472.719,531.581L483.435,515.815L493.928,500.364L504.227,482.892L513.779,468.875L522.567,453.247L537.023,438.713L550.426,420.198L562.999,404.861L577.554,387.542L593.952,375.826L609.334,369.41L625.98,370.086L640.791,378.956L654.738,392.089L664.655,407.659L673.307,425.84L681.167,448.512L686.759,468.119L695.023,487.727L711.293,519.111L720.874,546.502L732.473,574.32L743.15,594.388L756.009,614.671L767.993,635.37L783.29,652.341L801.69,667.225L815.006,677.583L833.484,686.647L851.558,688.656L870.482,690.428L887.336,689.124L905.423,684.273L923.152,676.914L937.467,666.491L952.925,658.504L969.045,650.366L974.181,665.79L964.72,679.79L955.028,693.537L945.005,708.595L927.451,719.348L910.802,731.196L896.376,737.897L876.499,741.387L860.552,744.415L844.93,744.291L826.72,742.374L810.742,739.236L793.376,736.138L761.932,724.631L740.765,713.796L722.782,699.588L703.421,681.427L687.51,664.126L667.686,644.873L652.409,626.988L634.623,605.185L623.948,574.211L610.34,551.006L600.492,531.413L587.407,515.715L576.304,502.812L563.049,495.241L551.958,505.611L544.75,519.23L537.952,534.073L517.457,549.297L500.169,566.045L475.848,591.247L453.875,613.563L429.503,619.021L401.872,620.498L379.733,607.067L356.136,578.58L334.545,559.78L314.831,541.837L297.545,519.685L288.379,504.001L277.882,487.88L258.764,501.234L245.066,522.52L237.375,541.013L223.528,565.387L210.601,585.28L195.456,601.013L179.649,614.785L166.64,629.338L150.067,638.773L134.043,639.412L113.207,629.401L94.832,612.844L81.843,592.106L68.953,570.646L57.928,544.286L46.698,508.215L40.158,472.797L38.665,434.335L36.916,414.636L38.06,394.178L44.046,376.275Z" style="stroke:black;stroke-width:1px;"/>
    </g>
</svg>
